<?xml version="1.0" standalone="no"?>
<!DOCTYPE svg PUBLIC "-//W3C//DTD SVG 20010904//EN"
 "http://www.w3.org/TR/2001/REC-SVG-20010904/DTD/svg10.dtd">
<svg version="1.0" xmlns="http://www.w3.org/2000/svg"
 width="108.000000pt" height="108.000000pt" viewBox="0 0 108.000000 108.000000"
 preserveAspectRatio="xMidYMid meet">
<metadata>
Created by potrace 1.11, written by Peter Selinger 2001-2013
</metadata>
<g transform="translate(0.000000,108.000000) scale(0.100000,-0.100000)"
fill="#000000" stroke="none">
<path d="M329 917 c-122 -17 -242 -108 -297 -225 -24 -50 -27 -69 -27 -157 0
-87 4 -107 27 -157 37 -80 107 -152 187 -191 61 -30 73 -32 166 -32 93 0 105
2 167 33 118 58 205 175 215 292 l5 56 -32 2 c-47 4 -75 -19 -88 -70 -23 -92
-105 -174 -196 -199 -198 -54 -388 137 -335 336 23 88 104 171 191 196 18 5
194 9 390 9 342 0 358 1 368 20 14 26 13 53 -3 75 -13 17 -36 18 -349 19 -184
1 -359 -2 -389 -7z"/>
<path d="M859 523 c0 -10 -2 -36 -5 -58 l-5 -41 94 1 c123 1 147 20 115 90
-11 24 -14 25 -105 25 -82 0 -93 -2 -94 -17z"/>
</g>
</svg>
