<?xml version="1.0" encoding="utf-8"?>
<!-- Generator: Adobe Illustrator 24.0.0, SVG Export Plug-In . SVG Version: 6.00 Build 0)  -->
<svg version="1.1" id="Calque_1" focusable="false" xmlns="http://www.w3.org/2000/svg" xmlns:xlink="http://www.w3.org/1999/xlink"
	 x="0px" y="0px" viewBox="0 0 512 512" style="enable-background:new 0 0 512 512;" xml:space="preserve">
<style type="text/css">
	.st0{fill:#FFFFFF;}
	.st1{fill:#FFC310;}
	.st2{fill:#3C0A4F;}
</style>
<path class="st0" d="M8,256C8,119,119,8,256,8s248,111,248,248S393,504,256,504S8,393,8,256z M163.1,282l64.4-67.2v162.5
	c0,11.8,9.5,21.4,21.4,21.4h14.2c11.8,0,21.4-9.5,21.4-21.4V214.8l64.4,67.2c8.3,8.6,22.1,8.8,30.5,0.4l9.7-9.8
	c8.4-8.4,8.4-21.9,0-30.2l-118-118.1c-8.4-8.4-21.9-8.4-30.2,0L122.8,242.4c-8.4,8.4-8.4,21.9,0,30.2l9.7,9.8
	C141,290.8,154.8,290.6,163.1,282z"/>
<g>
	<path class="st1" d="M255.9,84.7c45.7,0,88.8,17.8,121.1,50.2s50.2,75.4,50.2,121.1s-17.8,88.8-50.2,121.1s-75.4,50.2-121.1,50.2
		s-88.8-17.8-121.1-50.2S84.7,301.7,84.7,256s17.8-88.8,50.2-121.1S210.2,84.7,255.9,84.7 M255.9,44.7
		C139.3,44.7,44.7,139.3,44.7,256s94.6,211.3,211.3,211.3S467.2,372.7,467.2,256S372.6,44.7,255.9,44.7L255.9,44.7z"/>
</g>
<g>
	<path class="st2" d="M255.9,44.7c56.4,0,109.5,22,149.4,61.9s61.9,93,61.9,149.4s-22,109.5-61.9,149.4s-93,61.9-149.4,61.9
		s-109.5-22-149.4-61.9s-61.9-93-61.9-149.4s22-109.5,61.9-149.4S199.5,44.7,255.9,44.7 M255.9,4.7C117.2,4.7,4.7,117.2,4.7,256
		s112.5,251.3,251.3,251.3S507.2,394.8,507.2,256S394.7,4.7,255.9,4.7L255.9,4.7z"/>
</g>
</svg>
